<svg width="96" height="112" viewBox="0 0 96 112" fill="none" xmlns="http://www.w3.org/2000/svg">
<path d="M48 0C51.5019 0 54.9695 0.689754 58.2049 2.02988C61.4402 3.37 64.38 5.33426 66.8562 7.81049C69.3324 10.2867 71.2967 13.2264 72.6368 16.4618C73.9769 19.6971 74.6667 23.1648 74.6667 26.6667V37.3333H90.6667C92.0812 37.3333 93.4377 37.8952 94.4379 38.8954C95.4381 39.8956 96 41.2522 96 42.6667V106.667C96 108.081 95.4381 109.438 94.4379 110.438C93.4377 111.438 92.0812 112 90.6667 112H5.33333C3.91885 112 2.56229 111.438 1.5621 110.438C0.561903 109.438 0 108.081 0 106.667V42.6667C0 41.2522 0.561903 39.8956 1.5621 38.8954C2.56229 37.8952 3.91885 37.3333 5.33333 37.3333H21.3333V26.6667C21.3333 19.5942 24.1428 12.8115 29.1438 7.81049C34.1448 2.80952 40.9276 0 48 0ZM74.6667 53.3333H64V58.6667C64.0015 60.026 64.522 61.3335 65.4552 62.322C66.3884 63.3104 67.6638 63.9053 69.0208 63.9849C70.3778 64.0646 71.714 63.6231 72.7564 62.7506C73.7989 61.8781 74.4688 60.6405 74.6293 59.2907L74.6667 58.6667V53.3333ZM32 53.3333H21.3333V58.6667C21.3348 60.026 21.8554 61.3335 22.7885 62.322C23.7217 63.3104 24.9971 63.9053 26.3541 63.9849C27.7111 64.0646 29.0474 63.6231 30.0898 62.7506C31.1322 61.8781 31.8021 60.6405 31.9627 59.2907L32 58.6667V53.3333ZM48 10.6667C43.9189 10.6664 39.9919 12.2257 37.0226 15.0255C34.0533 17.8253 32.2661 21.6539 32.0267 25.728L32 26.6667V37.3333H64V26.6667C64.0002 22.5855 62.4409 18.6586 59.6412 15.6893C56.8414 12.72 53.0128 10.9328 48.9387 10.6933L48 10.6667Z" fill="black"/>
</svg>
