<svg width="103" height="96" viewBox="0 0 103 96" fill="none" xmlns="http://www.w3.org/2000/svg">
<path d="M34.5786 14.7988C31.2624 18.9926 29.4484 24.1843 29.4286 29.5385C29.4286 30.5177 29.041 31.4569 28.3511 32.1493C27.6613 32.8418 26.7256 33.2308 25.75 33.2308C12.4189 33.2308 7.35714 42.5649 7.35714 48C7.35714 51.1532 8.15171 54.7791 10.5869 57.5705C12.9339 60.2585 17.3187 62.7692 25.75 62.7692H29.4286C29.4286 65.2874 29.6566 67.7612 30.0907 70.1538H25.75C15.7884 70.1538 9.13757 67.1262 5.047 62.4295C1.04471 57.8363 0 52.2314 0 48C0 39.3009 7.09964 27.5815 22.2774 26.0234C22.9398 20.2038 25.2304 14.6915 28.8841 10.1243C33.7178 4.18708 41.2 0 51.5 0C57.7536 0 65.0445 2.06769 70.8493 6.83815C75.5431 10.6929 79.1481 16.2388 80.4209 23.5422C77.8557 22.851 75.2287 22.4157 72.5782 22.2425C71.4781 18.4316 69.245 15.0488 66.1775 12.5465C62.0003 9.22211 56.8308 7.40408 51.5 7.38462C43.4071 7.38462 38.0144 10.5822 34.5786 14.7988ZM103 62.7692C103 67.1332 102.144 71.4544 100.48 75.4861C98.8161 79.5178 96.3774 83.1812 93.3031 86.2669C90.2289 89.3527 86.5792 91.8005 82.5624 93.4705C78.5457 95.1405 74.2405 96 69.8929 96C65.5452 96 61.24 95.1405 57.2233 93.4705C53.2066 91.8005 49.5569 89.3527 46.4826 86.2669C43.4083 83.1812 40.9696 79.5178 39.3058 75.4861C37.6421 71.4544 36.7857 67.1332 36.7857 62.7692C36.7857 53.9559 40.2738 45.5035 46.4826 39.2715C52.6914 33.0396 61.1123 29.5385 69.8929 29.5385C78.6734 29.5385 87.0943 33.0396 93.3031 39.2715C99.5119 45.5035 103 53.9559 103 62.7692ZM87.2116 49.0782C86.8699 48.7343 86.4639 48.4615 86.017 48.2754C85.5701 48.0892 85.091 47.9934 84.6071 47.9934C84.1233 47.9934 83.6442 48.0892 83.1973 48.2754C82.7504 48.4615 82.3444 48.7343 82.0027 49.0782L62.5357 68.6252L57.783 63.8474C57.441 63.5041 57.0349 63.2318 56.5881 63.046C56.1412 62.8602 55.6623 62.7646 55.1786 62.7646C54.6949 62.7646 54.2159 62.8602 53.7691 63.046C53.3222 63.2318 52.9162 63.5041 52.5741 63.8474C52.2321 64.1907 51.9608 64.5982 51.7757 65.0468C51.5906 65.4953 51.4954 65.976 51.4954 66.4615C51.4954 66.947 51.5906 67.4278 51.7757 67.8763C51.9608 68.3248 52.2321 68.7324 52.5741 69.0757L59.9313 76.4603C60.273 76.8042 60.6789 77.077 61.1258 77.2631C61.5728 77.4492 62.0519 77.5451 62.5357 77.5451C63.0196 77.5451 63.4987 77.4492 63.9456 77.2631C64.3925 77.077 64.7984 76.8042 65.1401 76.4603L87.2116 54.3065C87.5541 53.9635 87.8259 53.556 88.0114 53.1074C88.1968 52.6589 88.2923 52.178 88.2923 51.6923C88.2923 51.2066 88.1968 50.7257 88.0114 50.2772C87.8259 49.8286 87.5541 49.4211 87.2116 49.0782Z" fill="black"/>
</svg>
