<svg width="127" height="121" viewBox="0 0 127 121" fill="none" xmlns="http://www.w3.org/2000/svg">
<path d="M120.054 16.1326H107.156V24.1993H119.062V112.933H7.93839V24.1993H19.8445V16.1326H6.94622C6.01849 16.1483 5.1029 16.3497 4.25175 16.7251C3.40059 17.1005 2.63055 17.6427 1.98561 18.3206C1.34066 18.9986 0.833441 19.799 0.492922 20.6762C0.152402 21.5533 -0.0147475 22.4901 0.00102016 23.433V113.7C-0.0147475 114.642 0.152402 115.579 0.492922 116.456C0.833441 117.334 1.34066 118.134 1.98561 118.812C2.63055 119.49 3.40059 120.032 4.25175 120.407C5.1029 120.783 6.01849 120.984 6.94622 121H120.054C120.982 120.984 121.897 120.783 122.748 120.407C123.599 120.032 124.369 119.49 125.014 118.812C125.659 118.134 126.167 117.334 126.507 116.456C126.848 115.579 127.015 114.642 126.999 113.7V23.433C127.015 22.4901 126.848 21.5533 126.507 20.6762C126.167 19.799 125.659 18.9986 125.014 18.3206C124.369 17.6427 123.599 17.1005 122.748 16.7251C121.897 16.3497 120.982 16.1483 120.054 16.1326Z" fill="#A6A6A6"/>
<path d="M23.813 48.3999H31.7672V56.4837H23.813V48.3999Z" fill="#A6A6A6"/>
<path d="M47.6238 48.3999H55.578V56.4837H47.6238V48.3999Z" fill="#A6A6A6"/>
<path d="M71.4368 48.3999H79.391V56.4837H71.4368V48.3999Z" fill="#A6A6A6"/>
<path d="M95.2498 48.3999H103.204V56.4837H95.2498V48.3999Z" fill="#A6A6A6"/>
<path d="M23.813 68.5667H31.7672V76.6506H23.813V68.5667Z" fill="#A6A6A6"/>
<path d="M47.6238 68.5667H55.578V76.6506H47.6238V68.5667Z" fill="#A6A6A6"/>
<path d="M71.4368 68.5667H79.391V76.6506H71.4368V68.5667Z" fill="#A6A6A6"/>
<path d="M95.2498 68.5667H103.204V76.6506H95.2498V68.5667Z" fill="#A6A6A6"/>
<path d="M23.813 88.7347H31.7672V96.8185H23.813V88.7347Z" fill="#A6A6A6"/>
<path d="M47.6238 88.7347H55.578V96.8185H47.6238V88.7347Z" fill="#A6A6A6"/>
<path d="M71.4368 88.7347H79.391V96.8185H71.4368V88.7347Z" fill="#A6A6A6"/>
<path d="M95.2498 88.7347H103.204V96.8185H95.2498V88.7347Z" fill="#A6A6A6"/>
<path d="M31.7501 32.2669C32.8027 32.2669 33.8122 31.842 34.5564 31.0856C35.3007 30.3292 35.7188 29.3033 35.7188 28.2335V4.03336C35.7188 2.96365 35.3007 1.93775 34.5564 1.18134C33.8122 0.424942 32.8027 0 31.7501 0C30.6976 0 29.6881 0.424942 28.9439 1.18134C28.1996 1.93775 27.7815 2.96365 27.7815 4.03336V28.2335C27.7815 29.3033 28.1996 30.3292 28.9439 31.0856C29.6881 31.842 30.6976 32.2669 31.7501 32.2669Z" fill="#A6A6A6"/>
<path d="M95.2478 32.2669C96.3004 32.2669 97.3099 31.842 98.0541 31.0856C98.7984 30.3292 99.2165 29.3033 99.2165 28.2335V4.03336C99.2165 2.96365 98.7984 1.93775 98.0541 1.18134C97.3099 0.424942 96.3004 0 95.2478 0C94.1953 0 93.1858 0.424942 92.4416 1.18134C91.6973 1.93775 91.2792 2.96365 91.2792 4.03336V28.2335C91.2792 29.3033 91.6973 30.3292 92.4416 31.0856C93.1858 31.842 94.1953 32.2669 95.2478 32.2669Z" fill="#A6A6A6"/>
<path d="M43.6553 16.1326H83.3422V24.1993H43.6553V16.1326Z" fill="#A6A6A6"/>
</svg>
