<svg width="109" height="116" viewBox="0 0 109 116" fill="none" xmlns="http://www.w3.org/2000/svg">
<path d="M47.6875 46.4L40.0575 38.6212L50.0037 28.6588H31.7462C30.9287 31.0243 29.6571 33.0714 27.9312 34.8C26.2054 36.5286 24.1617 37.8024 21.8 38.6212V84.2024C24.9792 85.3851 27.5915 87.363 29.6371 90.1361C31.679 92.9128 32.7 96.0753 32.7 99.6235C32.7 104.173 31.1104 108.039 27.9312 111.224C24.7521 114.408 20.8917 116 16.35 116C11.8083 116 7.94792 114.408 4.76875 111.224C1.58958 108.039 0 104.173 0 99.6235C0 96.0753 1.02097 92.9128 3.0629 90.1361C5.10847 87.363 7.72083 85.3851 10.9 84.2024V38.6212C7.72083 37.4384 5.10847 35.4587 3.0629 32.682C1.02097 29.9089 0 26.7482 0 23.2C0 18.651 1.58958 14.7843 4.76875 11.6C7.94792 8.41569 11.8083 6.82353 16.35 6.82353C19.8925 6.82353 23.0499 7.84615 25.8221 9.89139C28.5907 11.9403 30.5654 14.5569 31.7462 17.7412H50.0037L40.0575 7.77882L47.6875 0L70.85 23.2L47.6875 46.4ZM92.65 6.82353C97.1917 6.82353 101.052 8.41569 104.231 11.6C107.41 14.7843 109 18.651 109 23.2C109 27.749 107.41 31.6157 104.231 34.8C101.052 37.9843 97.1917 39.5765 92.65 39.5765C88.1083 39.5765 84.2479 37.9843 81.0687 34.8C77.8896 31.6157 76.3 27.749 76.3 23.2C76.3 18.651 77.8896 14.7843 81.0687 11.6C84.2479 8.41569 88.1083 6.82353 92.65 6.82353ZM73.03 63.5953L96.0562 86.6588L66.7625 116H43.6V92.8L73.03 63.5953ZM101.915 80.9271L78.6162 57.5906L82.7037 53.6329C84.8837 51.4494 87.4961 50.3577 90.5409 50.3577C93.582 50.3577 96.1471 51.4494 98.2362 53.6329L105.866 61.4118C107.955 63.5043 109 66.0518 109 69.0541C109 72.0565 107.955 74.6039 105.866 76.6965L101.915 80.9271Z" fill="black"/>
</svg>
