<svg width="129" height="166" viewBox="0 0 129 166" fill="none" xmlns="http://www.w3.org/2000/svg">
<path fill-rule="evenodd" clip-rule="evenodd" d="M23.4545 11.8571C20.3443 11.8571 17.3614 13.1064 15.1621 15.33C12.9628 17.5537 11.7273 20.5696 11.7273 23.7143V142.286C11.7273 145.43 12.9628 148.446 15.1621 150.67C17.3614 152.894 20.3443 154.143 23.4545 154.143H105.545C108.656 154.143 111.639 152.894 113.838 150.67C116.037 148.446 117.273 145.43 117.273 142.286V71.1424H76.227C71.5615 71.1424 67.0872 69.2686 63.7883 65.9331C60.4894 62.5977 58.636 58.0738 58.636 53.3567V11.8571H23.4545ZM70.3633 20.2411L108.98 59.2853H76.227C74.6718 59.2853 73.1804 58.6607 72.0807 57.5489C70.9811 56.437 70.3633 54.9291 70.3633 53.3567V20.2411ZM6.86968 6.94575C11.2683 2.49846 17.234 0 23.4545 0H59.6442C64.308 0.000712239 68.7815 1.87395 72.0796 5.20788L123.849 57.5502C127.146 60.8849 128.999 65.4076 129 70.123V142.286C129 148.575 126.529 154.607 122.13 159.054C117.732 163.502 111.766 166 105.545 166H23.4545C17.234 166 11.2683 163.502 6.86968 159.054C2.4711 154.607 0 148.575 0 142.286V23.7143C0 17.4249 2.4711 11.393 6.86968 6.94575ZM29.3179 94.8567C29.3179 91.5825 31.9431 88.9282 35.1815 88.9282H93.8179C97.0563 88.9282 99.6815 91.5825 99.6815 94.8567C99.6815 98.131 97.0563 100.785 93.8179 100.785H35.1815C31.9431 100.785 29.3179 98.131 29.3179 94.8567ZM29.3179 124.5C29.3179 121.225 31.9431 118.571 35.1815 118.571H93.8179C97.0563 118.571 99.6815 121.225 99.6815 124.5C99.6815 127.774 97.0563 130.428 93.8179 130.428H35.1815C31.9431 130.428 29.3179 127.774 29.3179 124.5Z" fill="white"/>
</svg>
