<svg width="115" height="97" viewBox="0 0 115 97" fill="none" xmlns="http://www.w3.org/2000/svg">
<path d="M88.833 41.82C90.3678 44.5145 91.5096 47.3212 92.2583 50.2402C93.007 53.1591 93.4001 56.1717 93.4375 59.2778V65.0596L57.5 83.0787L21.5625 65.0596C21.5625 62.8142 21.5812 60.7186 21.6187 58.7726C21.6561 56.8266 21.8245 54.9367 22.124 53.103C22.4235 51.2693 22.8727 49.4356 23.4717 47.6019C24.0706 45.7681 24.9691 43.8409 26.167 41.82L14.375 35.9259V68.8767C15.4606 69.251 16.4339 69.7749 17.2949 70.4485C18.1559 71.1221 18.9233 71.908 19.5972 72.8061C20.271 73.7043 20.7576 74.6773 21.0571 75.7251C21.3566 76.773 21.5251 77.8769 21.5625 79.037V97H0V79.037C0 77.9143 0.168457 76.8291 0.505371 75.7812C0.842285 74.7334 1.32894 73.7417 1.96533 72.8061C2.60173 71.8706 3.35042 71.0847 4.21143 70.4485C5.07243 69.8123 6.06445 69.2884 7.1875 68.8767V32.3333L0 28.7407L57.5 0L115 28.7407L88.833 41.82ZM14.375 79.037C14.375 78.064 14.0194 77.222 13.3081 76.511C12.5968 75.8 11.7546 75.4444 10.7812 75.4444C9.80794 75.4444 8.96566 75.8 8.25439 76.511C7.54313 77.222 7.1875 78.064 7.1875 79.037V89.8148H14.375V79.037ZM16.0596 28.7407L57.5 49.4543L98.9404 28.7407L57.5 8.0272L16.0596 28.7407ZM86.25 60.625C86.25 57.7434 85.9692 55.0677 85.4077 52.5978C84.8462 50.1279 83.8542 47.6019 82.4316 45.0197L57.5 57.4815L32.5684 45.0197C31.333 47.1902 30.3971 49.473 29.7607 51.8681C29.1243 54.2631 28.7874 56.733 28.75 59.2778V60.625L57.5 74.9954L86.25 60.625Z" fill="black"/>
</svg>
