<svg width="121" height="109" viewBox="0 0 121 109" fill="none" xmlns="http://www.w3.org/2000/svg">
<path d="M66.55 90.8333C66.55 88.7744 66.792 86.7761 67.0945 84.7778H12.1V24.2222L60.5 54.5L108.9 24.2222V55.045C113.256 55.7717 117.31 57.2856 121 59.405V12.1111C121 5.45 115.555 0 108.9 0H12.1C5.445 0 0 5.45 0 12.1111V84.7778C0 91.4389 5.445 96.8889 12.1 96.8889H67.0945C66.792 94.8906 66.55 92.8922 66.55 90.8333ZM108.9 12.1111L60.5 42.3889L12.1 12.1111H108.9ZM96.8 72.6667V84.7778H121V96.8889H96.8V109L78.65 90.8333L96.8 72.6667Z" fill="black"/>
</svg>
