<svg width="86" height="108" viewBox="0 0 86 108" fill="none" xmlns="http://www.w3.org/2000/svg">
<path d="M8.47536 20.3008L11.8406 34.6674L8.47536 48.9717L21.0014 56.7172L28.6667 69.2724L43 65.8994L57.3333 69.2724L64.9986 56.7172L77.5246 48.9717L74.1594 34.6674L77.5246 20.3008L65.0609 12.5552L57.3333 0L43 3.43551L28.729 0.0624638L20.9391 12.5552L8.47536 20.3008ZM43.0623 59.9028C36.4511 59.9028 30.1107 57.2704 25.4359 52.5847C20.7611 47.899 18.1348 41.5439 18.1348 34.9173C18.1348 28.2907 20.7611 21.9355 25.4359 17.2498C30.1107 12.5641 36.4511 9.93175 43.0623 9.93175C56.7725 9.93175 67.9275 21.1128 67.9275 34.8548C67.9275 48.7218 56.7725 59.9028 43.0623 59.9028ZM42.9377 53.6564C32.5928 53.6564 24.3044 45.2863 24.3044 34.9173C24.3044 24.6108 32.5928 16.1781 42.9377 16.1781C53.2826 16.1781 61.6957 24.6108 61.6957 34.9173C61.6957 45.2863 53.2826 53.6564 42.9377 53.6564ZM66.8681 60.5275L58.8913 74.5194L45.929 71.5836L61.6957 108L70.4203 94.258H86L66.8681 60.5275ZM18.8826 60.9647L26.6725 75.0191L39.9464 71.8334L24.3044 108L15.5797 94.258H0L18.8826 60.9647Z" fill="black"/>
</svg>
