<svg width="102" height="102" viewBox="0 0 102 102" fill="none" xmlns="http://www.w3.org/2000/svg">
<path d="M0 51C0 79.1665 22.8335 102 51 102C79.1665 102 102 79.1665 102 51C102 22.8335 79.1665 0 51 0C22.8335 0 0 22.8335 0 51Z" fill="#1877F2"/>
<path d="M76.5 51C76.5 36.975 65.025 25.5 51 25.5C36.975 25.5 25.5 36.975 25.5 51C25.5 63.75 34.7437 74.2687 46.8562 76.1812V58.3312H40.4812V51H46.8562V45.2625C46.8562 38.8875 50.6813 35.3813 56.4188 35.3813C59.2875 35.3813 62.1562 36.0188 62.1562 36.0188V42.3938H58.9688C55.7812 42.3938 54.825 44.3062 54.825 46.2188V51H61.8375L60.5625 58.3312H54.5063V76.5C67.2563 74.5875 76.5 63.75 76.5 51Z" fill="white"/>
</svg>
