<svg width="104" height="104" viewBox="0 0 104 104" fill="none" xmlns="http://www.w3.org/2000/svg">
<path d="M0 52C0 80.7188 23.2812 104 52 104C80.7188 104 104 80.7188 104 52C104 23.2812 80.7188 0 52 0C23.2812 0 0 23.2812 0 52Z" fill="#F00073"/>
<path d="M52 29.9C59.15 29.9 60.125 29.9 63.05 29.9C65.65 29.9 66.95 30.55 67.925 30.875C69.225 31.525 70.2 31.85 71.175 32.825C72.15 33.8 72.8 34.775 73.125 36.075C73.45 37.05 73.775 38.35 74.1 40.95C74.1 43.875 74.1 44.525 74.1 52C74.1 59.475 74.1 60.125 74.1 63.05C74.1 65.65 73.45 66.95 73.125 67.925C72.475 69.225 72.15 70.2 71.175 71.175C70.2 72.15 69.225 72.8 67.925 73.125C66.95 73.45 65.65 73.775 63.05 74.1C60.125 74.1 59.475 74.1 52 74.1C44.525 74.1 43.875 74.1 40.95 74.1C38.35 74.1 37.05 73.45 36.075 73.125C34.775 72.475 33.8 72.15 32.825 71.175C31.85 70.2 31.2 69.225 30.875 67.925C30.55 66.95 30.225 65.65 29.9 63.05C29.9 60.125 29.9 59.475 29.9 52C29.9 44.525 29.9 43.875 29.9 40.95C29.9 38.35 30.55 37.05 30.875 36.075C31.525 34.775 31.85 33.8 32.825 32.825C33.8 31.85 34.775 31.2 36.075 30.875C37.05 30.55 38.35 30.225 40.95 29.9C43.875 29.9 44.85 29.9 52 29.9ZM52 25.025C44.525 25.025 43.875 25.025 40.95 25.025C38.025 25.025 36.075 25.675 34.45 26.325C32.825 26.975 31.2 27.95 29.575 29.575C27.95 31.2 27.3 32.5 26.325 34.45C25.675 36.075 25.35 38.025 25.025 40.95C25.025 43.875 25.025 44.85 25.025 52C25.025 59.475 25.025 60.125 25.025 63.05C25.025 65.975 25.675 67.925 26.325 69.55C26.975 71.175 27.95 72.8 29.575 74.425C31.2 76.05 32.5 76.7 34.45 77.675C36.075 78.325 38.025 78.65 40.95 78.975C43.875 78.975 44.85 78.975 52 78.975C59.15 78.975 60.125 78.975 63.05 78.975C65.975 78.975 67.925 78.325 69.55 77.675C71.175 77.025 72.8 76.05 74.425 74.425C76.05 72.8 76.7 71.5 77.675 69.55C78.325 67.925 78.65 65.975 78.975 63.05C78.975 60.125 78.975 59.15 78.975 52C78.975 44.85 78.975 43.875 78.975 40.95C78.975 38.025 78.325 36.075 77.675 34.45C77.025 32.825 76.05 31.2 74.425 29.575C72.8 27.95 71.5 27.3 69.55 26.325C67.925 25.675 65.975 25.35 63.05 25.025C60.125 25.025 59.475 25.025 52 25.025Z" fill="white"/>
<path d="M52 38.025C44.2 38.025 38.025 44.2 38.025 52C38.025 59.8 44.2 65.975 52 65.975C59.8 65.975 65.975 59.8 65.975 52C65.975 44.2 59.8 38.025 52 38.025ZM52 61.1C47.125 61.1 42.9 57.2 42.9 52C42.9 47.125 46.8 42.9 52 42.9C56.875 42.9 61.1 46.8 61.1 52C61.1 56.875 56.875 61.1 52 61.1Z" fill="white"/>
<path d="M66.3 40.95C68.0949 40.95 69.55 39.495 69.55 37.7C69.55 35.9051 68.0949 34.45 66.3 34.45C64.5051 34.45 63.05 35.9051 63.05 37.7C63.05 39.495 64.5051 40.95 66.3 40.95Z" fill="white"/>
</svg>
