<svg width="105" height="105" viewBox="0 0 105 105" fill="none" xmlns="http://www.w3.org/2000/svg">
<path d="M105 99.1667C105 100.714 104.385 102.198 103.291 103.291C102.198 104.385 100.714 105 99.1667 105H5.83333C4.28624 105 2.80251 104.385 1.70854 103.291C0.614581 102.198 0 100.714 0 99.1667V5.83333C0 4.28624 0.614581 2.80251 1.70854 1.70854C2.80251 0.614581 4.28624 0 5.83333 0H99.1667C100.714 0 102.198 0.614581 103.291 1.70854C104.385 2.80251 105 4.28624 105 5.83333V99.1667ZM46.6667 11.6667H11.6667V93.3333H46.6667V11.6667ZM93.3333 58.3333H58.3333V93.3333H93.3333V58.3333ZM93.3333 11.6667H58.3333V46.6667H93.3333V11.6667Z" fill="black"/>
</svg>
