<svg width="108" height="108" viewBox="0 0 108 108" fill="none" xmlns="http://www.w3.org/2000/svg">
<path d="M0 54C0 83.8234 24.1766 108 54 108C83.8234 108 108 83.8234 108 54C108 24.1766 83.8234 0 54 0C24.1766 0 0 24.1766 0 54Z" fill="#2867B2"/>
<path d="M39.15 81H27.675V44.8875H39.15V81ZM33.4125 39.825C29.7 39.825 27 37.125 27 33.4125C27 29.7 30.0375 27 33.4125 27C37.125 27 39.825 29.7 39.825 33.4125C39.825 37.125 37.125 39.825 33.4125 39.825ZM81 81H69.525V61.425C69.525 55.6875 67.1625 54 63.7875 54C60.4125 54 57.0375 56.7 57.0375 61.7625V81H45.5625V44.8875H56.3625V49.95C57.375 47.5875 61.425 43.875 67.1625 43.875C73.575 43.875 80.325 47.5875 80.325 58.725V81H81Z" fill="white"/>
</svg>
