<svg width="200" height="200" viewBox="0 0 200 200" fill="none" xmlns="http://www.w3.org/2000/svg">
<path d="M195.213 4.80536C193.054 2.66169 190.346 1.1547 187.386 0.450012C184.427 -0.254679 181.33 -0.129794 178.437 0.810942L11.47 56.5045C8.37341 57.4857 5.63706 59.3626 3.60655 61.8981C1.57603 64.4335 0.342435 67.5138 0.0615618 70.75C-0.219312 73.9861 0.465136 77.233 2.02846 80.0803C3.59179 82.9277 5.96386 85.2479 8.84509 86.748L78.1197 120.986L112.358 190.489C113.734 193.209 115.84 195.493 118.439 197.086C121.039 198.678 124.031 199.515 127.08 199.505H128.221C131.486 199.264 134.603 198.047 137.168 196.012C139.732 193.977 141.625 191.217 142.601 188.092L199.093 21.5819C200.102 18.7052 200.273 15.601 199.586 12.631C198.899 9.66087 197.383 6.94702 195.213 4.80536ZM18.5458 72.2539L164.285 23.6362L83.3695 104.552L18.5458 72.2539ZM127.879 181.473L95.4669 116.649L176.382 35.7336L127.879 181.473Z" fill="white"/>
</svg>
