<svg width="85" height="85" viewBox="0 0 85 85" fill="none" xmlns="http://www.w3.org/2000/svg">
<path d="M42.5 0C19.0655 0 0 19.0655 0 42.5V60.1077C0 64.4597 3.81225 68 8.5 68H12.75C13.8772 68 14.9582 67.5522 15.7552 66.7552C16.5522 65.9582 17 64.8772 17 63.75V41.8923C17 40.7651 16.5522 39.6841 15.7552 38.887C14.9582 38.09 13.8772 37.6423 12.75 37.6423H8.891C11.254 21.1948 25.4065 8.5 42.5 8.5C59.5935 8.5 73.746 21.1948 76.109 37.6423H72.25C71.1228 37.6423 70.0418 38.09 69.2448 38.887C68.4478 39.6841 68 40.7651 68 41.8923V68C68 72.6878 64.1878 76.5 59.5 76.5H51V72.25H34V85H59.5C68.8755 85 76.5 77.3755 76.5 68C81.1878 68 85 64.4597 85 60.1077V42.5C85 19.0655 65.9345 0 42.5 0Z" fill="black"/>
</svg>
