<svg width="98" height="98" viewBox="0 0 98 98" fill="none" xmlns="http://www.w3.org/2000/svg">
<path d="M0 49C0 76.062 21.938 98 49 98C76.062 98 98 76.062 98 49C98 21.938 76.062 0 49 0C21.938 0 0 21.938 0 49Z" fill="#1DA1F2"/>
<path d="M73.5 33.6875C71.6625 34.6063 69.825 34.9125 67.6812 35.2188C69.825 33.9937 71.3562 32.1562 71.9687 29.7062C70.1312 30.9312 67.9875 31.5437 65.5375 32.1562C63.7 30.3187 60.9437 29.0938 58.1875 29.0938C51.7562 29.0938 46.8562 35.2188 48.3875 41.3438C40.1187 41.0375 32.7687 37.0563 27.5625 30.9313C24.8063 35.525 26.3375 41.3438 30.625 44.4062C29.0937 44.4062 27.5625 43.7938 26.0312 43.1813C26.0312 47.775 29.4 52.0625 33.9938 53.2875C32.4625 53.5937 30.9313 53.9 29.4 53.5938C30.625 57.575 34.3 60.6375 38.8937 60.6375C35.2187 63.3937 29.7062 64.925 24.5 64.3125C29.0937 67.0687 34.3 68.9062 39.8125 68.9062C58.4937 68.9062 68.9062 53.2875 68.2937 38.8937C70.4375 37.6687 72.275 35.8312 73.5 33.6875Z" fill="white"/>
</svg>
