<svg width="104" height="104" viewBox="0 0 104 104" fill="none" xmlns="http://www.w3.org/2000/svg">
<path d="M88.8442 15.1323C84.0529 10.3167 78.3459 6.49856 72.056 3.90056C65.7661 1.30256 59.0193 -0.0232965 52.209 0.000309761C23.6744 0.000309761 0.418091 23.1402 0.418091 51.5322C0.418091 60.6321 2.82211 69.4721 7.31658 77.2721L0 104L27.4372 96.824C35.0151 100.932 43.5337 103.116 52.209 103.116C80.7437 103.116 104 79.9761 104 51.5842C104 37.8042 98.6171 24.8562 88.8442 15.1323ZM52.209 94.38C44.4744 94.38 36.8965 92.3 30.2593 88.4L28.6915 87.464L12.3859 91.728L16.7236 75.9201L15.6784 74.3081C11.3812 67.4803 9.09943 59.5882 9.09347 51.5322C9.09347 27.9242 28.4301 8.68428 52.1568 8.68428C63.6543 8.68428 74.4724 13.1563 82.5729 21.2682C86.5838 25.2408 89.7624 29.9661 91.9245 35.17C94.0865 40.374 95.1889 45.9531 95.1678 51.5842C95.2724 75.1921 75.9357 94.38 52.209 94.38ZM75.8311 62.3481C74.5246 61.7241 68.1487 58.6041 66.999 58.1361C65.797 57.7201 64.9608 57.5121 64.0724 58.7601C63.1839 60.0601 60.7276 62.9721 59.996 63.8041C59.2643 64.6881 58.4804 64.7921 57.1739 64.1161C55.8673 63.4921 51.6864 62.0881 46.7739 57.7201C42.9065 54.2881 40.3457 50.0762 39.5618 48.7762C38.8301 47.4762 39.4573 46.8002 40.1367 46.1242C40.7116 45.5522 41.4432 44.6162 42.0704 43.8882C42.6975 43.1602 42.9588 42.5882 43.3769 41.7562C43.795 40.8722 43.5859 40.1442 43.2724 39.5202C42.9588 38.8962 40.3457 32.5522 39.3005 29.9522C38.2553 27.4562 37.1578 27.7682 36.3739 27.7162H33.8653C32.9769 27.7162 31.6181 28.0282 30.4161 29.3282C29.2663 30.6282 25.9216 33.7482 25.9216 40.0922C25.9216 46.4362 30.5729 52.5722 31.2 53.4042C31.8271 54.2881 40.3457 67.2881 53.3065 72.8521C56.3899 74.2041 58.794 74.9841 60.6754 75.5561C63.7588 76.5441 66.5809 76.3881 68.8281 76.0761C71.3367 75.7121 76.5105 72.9561 77.5558 69.9401C78.6533 66.9241 78.6533 64.3761 78.2874 63.8041C77.9216 63.2321 77.1377 62.9721 75.8311 62.3481Z" fill="black"/>
</svg>
