<svg width="28" height="33" viewBox="0 0 28 33" fill="none" xmlns="http://www.w3.org/2000/svg">
<path d="M27.9023 8.77854L14.1527 0.84021L0.403076 8.77854V24.6552L14.1527 32.5935L27.9023 24.6552V8.77854Z" fill="#1644F5"/>
<path d="M20.9427 9.92687C19.5804 8.56467 17.8449 7.63699 15.9555 7.26116C14.066 6.88533 12.1076 7.07822 10.3278 7.81544C8.54798 8.55266 7.02675 9.8011 5.95648 11.4029C4.8862 13.0047 4.31494 14.8878 4.31494 16.8143C4.31494 18.7407 4.8862 20.6239 5.95648 22.2257C7.02675 23.8275 8.54798 25.0759 10.3278 25.8131C12.1076 26.5504 14.066 26.7433 15.9555 26.3674C17.8449 25.9916 19.5805 25.0639 20.9427 23.7017L16.9955 19.7545C16.4139 20.3361 15.673 20.7321 14.8664 20.8925C14.0598 21.053 13.2238 20.9706 12.464 20.6559C11.7042 20.3412 11.0548 19.8082 10.5979 19.1244C10.141 18.4406 9.89711 17.6367 9.89711 16.8143C9.89711 15.9919 10.141 15.188 10.5979 14.5042C11.0548 13.8204 11.7042 13.2874 12.464 12.9727C13.2238 12.658 14.0598 12.5756 14.8664 12.7361C15.673 12.8965 16.4139 13.2925 16.9955 13.8741L20.9427 9.92687Z" fill="white"/>
<path d="M15.6846 19.0197H14.8226V17.9115H15.6846V16.9265H16.9159V17.9115H17.7778V19.0197H16.9159V20.0048H15.6846V19.0197ZM20.1558 19.0197H19.2939V17.9115H20.1558V16.9265H21.3872V17.9115H22.2491V19.0197H21.3872V20.0048H20.1558V19.0197Z" fill="white"/>
</svg>
