<svg width="32" height="32" viewBox="0 0 32 32" fill="none" xmlns="http://www.w3.org/2000/svg">
<path d="M7.67949 22.9464V18.6716C7.70044 17.519 8.53446 15.1888 11.7029 15.0882C14.8713 14.9877 18.639 15.0463 20.1269 15.0882C20.9368 15.1461 22.4432 14.3926 23.2383 12.5736V3.45812C22.746 2.5361 21.0321 0.666896 18.1152 0.566311C15.1982 0.465726 12.9602 0.5244 12.2058 0.566311C11.0952 0.922549 8.83621 1.99964 8.68533 3.45812C8.53446 4.91661 8.62247 6.66427 8.68533 7.35579H15.9777V8.23591H5.35346C3.8866 8.40355 0.927729 9.73211 0.827145 13.7052C0.72656 17.6783 0.785234 18.2106 0.827145 17.9801C0.97383 19.426 1.90843 22.4435 4.47334 22.9464H7.67949Z" fill="#3970A2" stroke="black" stroke-width="0.188597"/>
<path d="M24.4956 8.48737V12.7622C24.4746 13.9148 23.6406 16.245 20.4722 16.3456C17.3037 16.4461 13.536 16.3875 12.0482 16.3456C11.2382 16.2877 9.7319 17.0412 8.93673 18.8602V27.9757C9.42905 28.8977 11.1429 30.7669 14.0599 30.8675C16.9768 30.9681 19.2149 30.9094 19.9692 30.8675C21.0799 30.5113 23.3388 29.4342 23.4897 27.9757C23.6406 26.5172 23.5526 24.7695 23.4897 24.078H16.1973V23.1979H26.8216C28.2884 23.0303 31.2473 21.7017 31.3479 17.7286C31.4485 13.7555 31.3898 13.2232 31.3479 13.4537C31.2012 12.0078 30.2666 8.99029 27.7017 8.48737H24.4956Z" fill="#FED141" stroke="black" stroke-width="0.188597"/>
<circle cx="11.8915" cy="4.14961" r="1.44591" fill="white" stroke="black" stroke-width="0.377193"/>
<circle cx="20.0641" cy="27.0327" r="1.44591" fill="white" stroke="black" stroke-width="0.377193"/>
</svg>
